# xmcd
#
# Track frame offsets:
#	150
#	15276
#	30848
#	47318
#	64144
#	78278
#	92816
#	106431
#	123582
#	136306
#	148597
#	159792
#	181387
#	202306
#	218848
#	232857
#	254471
#	271701
#	287283
#	303713
#	327412
#
# Disc length: 4533 seconds
#
# Revision: 0
# Processed by: cddbd v1.5.1PL2 Copyright (c) Steve Scherf et al.
# Submitted via: audiograbber 1.83.01
#
DISCID=1a11b315
DTITLE=ggz - zre
DYEAR=1999
DGENRE=rt
TTITLE0=5ezt
TTITLE1=ert
TTITLE2=ert
TTITLE3=ert
TTITLE4=ter
TTITLE5=ertz
TTITLE6=trzuiztu
TTITLE7=rtzuzt
TTITLE8=jghfjj
TTITLE9=ggfhjouio
TTITLE10=uzoz
TTITLE11=zuoi
TTITLE12=zuot
TTITLE13=rtuz6
TTITLE14=rez
TTITLE15=er7
TTITLE16=78i
TTITLE17=Track trzu
TTITLE18=tzri
TTITLE19=uog
TTITLE20=ruzi
EXTD=
EXTT0=rtz
EXTT1=
EXTT2=
EXTT3=
EXTT4=
EXTT5=
EXTT6=
EXTT7=
EXTT8=
EXTT9=
EXTT10=
EXTT11=
EXTT12=
EXTT13=
EXTT14=rtz
EXTT15=
EXTT16=
EXTT17=
EXTT18=
EXTT19=
EXTT20=
PLAYORDER=
